<svg width="39" height="47" viewBox="0 0 39 47" fill="none" xmlns="http://www.w3.org/2000/svg">
<path d="M4.05547 43.7774C4.61851 44.3916 5.43747 44.6914 6.49043 44.6914C7.8432 44.6914 9.5762 44.1795 11.5432 43.1631C14.1098 44.7499 18.7531 45.7297 23.8643 45.7297C30.8841 45.7297 38.3499 43.7628 38.3499 40.114V35.6462C38.3499 34.8784 38.0135 34.1691 37.3627 33.5183C36.7119 32.8675 35.754 32.2826 34.4963 31.7707C34.5329 31.5733 34.5548 31.3758 34.5548 31.1784C34.5548 29.5112 32.171 26.2207 31.6957 25.5772C31.5495 25.3871 31.3301 25.2774 31.0888 25.2774C30.8475 25.2774 30.6281 25.3944 30.4819 25.5772C30.087 26.1037 28.3394 28.5241 27.791 30.2571C26.9135 30.1693 26.0214 30.1108 25.122 30.0815C26.4382 27.5149 26.5845 25.4895 25.5169 24.3122L22.5262 21.0071H22.5189C21.4001 19.764 19.2795 19.7567 16.3839 20.9705C13.7734 22.0674 10.8047 24.0563 8.03333 26.579C5.24736 29.1017 2.98057 31.8584 1.63512 34.3592C0.143421 37.1233 -0.0540081 39.2292 1.06476 40.4649L4.06276 43.7701L4.05547 43.7774ZM36.8362 40.114C36.8362 42.0517 31.2862 44.2161 23.8643 44.2161C19.572 44.2161 15.5503 43.4849 13.1007 42.3003C13.1592 42.2637 13.2323 42.2199 13.2908 42.176C13.6418 41.964 13.9928 41.7373 14.3438 41.5033C14.4754 41.4229 14.5997 41.3278 14.7313 41.24C15.0458 41.0207 15.3675 40.794 15.6746 40.56C15.755 40.5015 15.8355 40.443 15.9159 40.3845C15.9671 40.3991 16.0402 40.4064 16.0987 40.4211C16.5301 40.5234 16.9762 40.6258 17.4296 40.7062C17.4442 40.7062 17.4588 40.7136 17.4734 40.7136C17.5246 40.7209 17.5904 40.7282 17.6416 40.7428C17.722 40.7574 17.8098 40.7647 17.8902 40.7793C18.4606 40.8744 19.0309 40.9622 19.6305 41.0207C19.6817 41.028 19.7475 41.0353 19.806 41.0426C20.4276 41.1084 21.0637 41.1669 21.7145 41.1961C21.7438 41.1961 21.773 41.2035 21.8023 41.2035C22.475 41.2327 23.1623 41.2547 23.857 41.2547C29.1364 41.2547 33.9771 40.2017 36.4779 38.5053C36.5364 38.4614 36.6022 38.4102 36.6607 38.359C36.7192 38.3224 36.7777 38.2859 36.8289 38.2347V40.0993L36.8362 40.114ZM17.4515 39.1707C17.5246 39.1049 17.605 39.0317 17.6855 38.9659C17.9706 38.7173 18.2704 38.4687 18.5556 38.2128C18.9212 37.8691 19.2868 37.5327 19.6525 37.1671C19.828 36.9989 20.0035 36.8161 20.1716 36.648C20.3325 36.4871 20.4861 36.3335 20.6469 36.1653C21.656 36.0776 22.7309 36.0264 23.8643 36.0264C28.0689 36.0264 32.054 36.7357 34.5036 37.8911C34.4744 37.9057 34.4524 37.9203 34.4232 37.9349C34.1453 38.0665 33.8455 38.1835 33.5311 38.3078C33.5238 38.3078 33.5092 38.3151 33.5018 38.3151C33.1874 38.4321 32.8511 38.5418 32.5001 38.6369L32.3392 38.6807C31.9955 38.7758 31.6372 38.8782 31.2643 38.9586C31.1985 38.9732 31.1254 38.9879 31.0522 39.0025C30.672 39.0902 30.2845 39.1707 29.8896 39.2438C29.8384 39.2511 29.7945 39.2584 29.736 39.2658C29.3412 39.3316 28.9317 39.3974 28.5222 39.4486C28.4783 39.4559 28.4345 39.4632 28.3906 39.4705C27.9592 39.5217 27.5277 39.5655 27.0817 39.6094L26.8331 39.6314C26.4017 39.6679 25.9556 39.6899 25.5096 39.7118C25.4364 39.7118 25.356 39.7191 25.2829 39.7191C24.8076 39.7337 24.3396 39.7483 23.857 39.7483C23.1989 39.7483 22.5481 39.7264 21.9119 39.6972C21.7145 39.6898 21.5171 39.6679 21.3196 39.6606C20.8736 39.6313 20.4349 39.5948 20.0035 39.5436C19.7914 39.5216 19.5867 39.4997 19.3819 39.4705C18.9432 39.4193 18.5191 39.3535 18.1023 39.2803C17.9341 39.2584 17.7586 39.2292 17.5977 39.1999C17.5465 39.1926 17.4953 39.178 17.4369 39.1707H17.4515ZM27.674 31.7634L27.6959 31.8292C27.7105 31.9096 27.7325 31.9901 27.7544 32.0632C27.7837 32.1948 27.8202 32.3264 27.8787 32.4507C27.908 32.5312 27.9445 32.6116 27.9811 32.692C28.0323 32.809 28.0981 32.9114 28.1639 33.0138C28.2078 33.0869 28.259 33.1673 28.3175 33.2332C28.3906 33.3282 28.471 33.4306 28.5515 33.5183C28.61 33.5841 28.6758 33.6499 28.7416 33.7084C28.8293 33.7889 28.9317 33.8693 29.0268 33.9424C29.0926 33.9936 29.1657 34.0448 29.2388 34.1033C29.3412 34.1691 29.4655 34.2276 29.5825 34.2861C29.6556 34.3226 29.736 34.3592 29.8092 34.3885C29.9408 34.447 30.0797 34.4835 30.2187 34.5201C30.2918 34.542 30.3649 34.564 30.4307 34.5786C30.6501 34.6225 30.8694 34.6444 31.0961 34.6444C31.257 34.6444 31.4105 34.6298 31.5714 34.6078C31.6226 34.6005 31.6665 34.5932 31.725 34.5859C31.8273 34.564 31.937 34.542 32.0321 34.5128C32.0906 34.4982 32.1491 34.4835 32.2003 34.4616C32.2953 34.4324 32.3904 34.3958 32.4781 34.3592C32.5293 34.3373 32.5805 34.3153 32.639 34.2934C32.7341 34.2495 32.8291 34.191 32.9169 34.1325C32.9534 34.1106 32.9973 34.0886 33.0412 34.0594C33.1655 33.979 33.2825 33.8839 33.3995 33.7889C33.436 33.7596 33.4653 33.723 33.4945 33.6938C33.5676 33.6207 33.6481 33.5403 33.7212 33.4598C33.7578 33.416 33.7943 33.3648 33.8382 33.3136C33.8674 33.2697 33.904 33.2258 33.9406 33.1746C35.7613 33.9132 36.8362 34.8272 36.8362 35.6535C36.8362 36.0411 36.6022 36.3993 36.3024 36.7137C36.2147 36.8015 36.1196 36.8966 36.0246 36.977C33.4214 35.4488 28.8513 34.5128 23.8716 34.5128C23.2574 34.5128 22.6651 34.5274 22.0874 34.5494C22.1898 34.425 22.2849 34.3154 22.3799 34.1911C22.5189 34.0229 22.6578 33.8474 22.7894 33.6865C22.9649 33.4598 23.1331 33.2404 23.2866 33.0138C23.4109 32.8529 23.528 32.6994 23.6376 32.5385C23.7693 32.3557 23.8789 32.1728 24.0032 32.0047C24.091 31.8584 24.2007 31.7195 24.2884 31.5733C25.4291 31.5879 26.5625 31.6537 27.6813 31.7707L27.674 31.7634ZM23.06 24.3853C23.0892 24.2391 23.1185 24.1001 23.1404 23.9612L24.3908 25.3359C25.0855 26.111 24.6321 28.0487 23.2062 30.4106C23.0161 30.725 22.804 31.0541 22.5847 31.3758C22.241 31.8731 21.8608 32.3922 21.4513 32.9114C20.9321 33.5768 20.3617 34.2422 19.7402 34.9076C19.3892 35.2806 19.0382 35.6315 18.6799 35.9898L18.6434 36.0264C18.5629 36.1068 18.4752 36.1873 18.3875 36.2677C18.1096 36.5383 17.8171 36.8162 17.5392 37.0721C17.1663 37.4084 16.8007 37.7302 16.4205 38.0446C16.3985 38.0592 16.3766 38.0811 16.3547 38.0958C15.9964 38.3883 15.6454 38.6808 15.2871 38.944C15.2871 38.9513 15.2798 38.9586 15.2798 38.9586C14.607 39.4778 13.9343 39.9677 13.2616 40.4065C12.5888 40.8525 11.9088 41.2547 11.2434 41.6203H11.2361C8.34775 43.1705 5.97128 43.6165 5.18156 42.7537L3.93115 41.3716C4.07739 41.3643 4.21633 41.3497 4.36989 41.3278C6.10289 41.0865 8.23806 40.1797 10.5341 38.7246C10.8705 38.5199 11.1995 38.3005 11.5432 38.0739C12.9106 37.1452 14.2706 36.0703 15.5576 34.8857C16.6837 33.862 17.7294 32.8017 18.6361 31.7488C18.9286 31.4124 19.2137 31.0833 19.4843 30.7543C21.3635 28.429 22.6139 26.1988 23.06 24.378V24.3853ZM2.95863 35.0831C4.22365 32.7359 6.38808 30.1181 9.04242 27.7051C11.6968 25.2993 14.512 23.4055 16.9689 22.3745C18.2046 21.8553 19.2795 21.5847 20.0839 21.5847C20.6835 21.5847 21.1368 21.731 21.3928 22.0235C21.4366 22.0674 21.4586 22.1112 21.4878 22.1624C21.5025 22.1844 21.5171 22.1989 21.5317 22.2209L21.5975 22.3818L21.6195 22.4476C21.6414 22.5207 21.6633 22.6011 21.6706 22.6816C21.6706 22.6816 21.678 22.6889 21.678 22.6962C21.7365 23.1203 21.6706 23.6175 21.5756 24.027C21.4074 24.7071 21.1003 25.4822 20.6616 26.3011C20.5884 26.4474 20.4861 26.5936 20.4056 26.7472C20.3325 26.8788 20.2594 27.0104 20.1789 27.1494C20.0619 27.3322 19.9376 27.5296 19.8133 27.7197C19.7475 27.8148 19.6817 27.9245 19.6159 28.0195C19.4843 28.2096 19.3454 28.4071 19.2064 28.5972C19.126 28.6996 19.0529 28.8092 18.9724 28.9189C18.8554 29.0725 18.7311 29.226 18.6068 29.3796C18.4898 29.5332 18.3874 29.6794 18.2558 29.8256C18.0145 30.1327 17.7513 30.4399 17.4807 30.747C16.6033 31.7634 15.6015 32.7725 14.5193 33.7596C13.2689 34.893 11.9746 35.9167 10.6584 36.8161C10.344 37.0355 10.0222 37.2403 9.70781 37.4377C7.6092 38.7612 5.6276 39.6094 4.12859 39.8214C3.96041 39.8434 3.7849 39.858 3.60941 39.8653C3.14874 39.8799 2.67345 39.8288 2.33709 39.5948C2.27128 39.5509 2.20547 39.4997 2.15428 39.4412C1.53274 38.7539 1.81792 37.1159 2.9367 35.0685L2.95863 35.0831Z" fill="#24A0D6" stroke="#24A0D6" stroke-width="0.7"/>
<path d="M12.1359 7.14303L11.5217 7.75728C11.178 8.10095 11.0025 8.5543 11.0025 9.0296C11.0025 9.50489 11.1926 9.95092 11.529 10.2946L14.4173 13.1829C14.5636 13.3292 14.761 13.4023 14.9438 13.4023C15.1266 13.4023 15.3314 13.3292 15.4776 13.1829L16.8157 11.8375L29.0491 24.0709C29.5317 24.5535 30.1679 24.8167 30.8479 24.8167C31.528 24.8167 32.1714 24.5535 32.6614 24.0709C33.6558 23.0764 33.6558 21.4604 32.654 20.4586L20.4207 8.22527L21.7661 6.8798C21.9124 6.74087 21.9855 6.54346 21.9855 6.35334C21.9855 6.16322 21.9124 5.95845 21.7661 5.81951L18.8778 2.93122C18.2051 2.25118 17.0205 2.25849 16.3404 2.93122L15.7262 3.54542L13.2766 1.09584C12.8013 0.620543 12.1432 0.349976 11.4705 0.349976C10.7905 0.357288 10.1543 0.620543 9.67901 1.09584C8.67723 2.09761 8.67723 3.71363 9.67169 4.7154L12.1213 7.15767L12.1359 7.14303ZM31.6011 21.5262C32.0106 21.9357 32.0106 22.5938 31.6084 23.0033C31.2135 23.3981 30.5408 23.4054 30.1313 23.0033L17.9053 10.7699L19.375 9.30015L31.6011 21.5262ZM12.5966 8.82488L17.43 3.99146C17.4958 3.91833 17.5835 3.91103 17.6274 3.91103C17.6713 3.91103 17.7517 3.91833 17.8248 3.99146L20.1794 6.34602L18.8339 7.68417L14.9511 11.567L12.5966 9.2124C12.5235 9.14659 12.5162 9.05883 12.5162 9.01496C12.5162 8.96377 12.5308 8.89069 12.5966 8.82488Z" fill="#24A0D6" stroke="#24A0D6" stroke-width="0.7"/>
<path d="M15.4185 25.6869C15.5502 25.6869 15.6818 25.6503 15.8061 25.5845C16.3179 25.2847 16.8006 25.0141 17.2466 24.7801C17.6195 24.59 17.7584 24.1294 17.561 23.7564C17.3709 23.3908 16.9102 23.2446 16.5373 23.442C16.0693 23.6906 15.5575 23.9685 15.0237 24.2902C14.6654 24.5023 14.5484 24.9703 14.7604 25.3286C14.8994 25.5699 15.1553 25.6942 15.4112 25.6942L15.4185 25.6869Z" fill="#24A0D6" stroke="#24A0D6" stroke-width="0.7"/>
<path d="M4.25294 36.3262C4.37725 36.3993 4.50887 36.4359 4.64049 36.4359C4.89642 36.4359 5.14505 36.3042 5.29129 36.0702C6.57093 33.9351 8.1065 31.9681 9.86144 30.2132C11.0021 29.0725 12.2452 28.0122 13.5541 27.0689C13.8905 26.8276 13.9709 26.3523 13.7223 26.0159C13.481 25.6722 13.0057 25.5991 12.6693 25.8477C11.2946 26.8422 9.99304 27.9464 8.79384 29.1456C6.95115 30.9883 5.33516 33.0576 3.98971 35.2951C3.77766 35.6534 3.89464 36.1215 4.24562 36.3335L4.25294 36.3262Z" fill="#24A0D6" stroke="#24A0D6" stroke-width="0.7"/>
</svg>
